# xmcd
#
# Track frame offsets:
#	150
#	14033
#	30260
#	45247
#	60762
#	75964
#	90308
#	106474
#	118522
#	132542
#	143892
#	157040
#
# Disc length: 2290 seconds
#
# Revision: 0
# Processed by: cddbd v1.5.2PL0 Copyright (c) Steve Scherf et al.
# Submitted via: EasyCDDAExtractor 16.0.6.1
#
DISCID=8908f00c
DTITLE=Συλλογικός δίσκος - Το τελευταίο βράδυ-Ε. Παπαγιαννοπούλου 3
DYEAR=2009
DGENRE=Λαϊκή
TTITLE0=Μπιθικώτσης Γρηγόρης - Τι να σού κάνει μιά καρδιά [1966]
TTITLE1=Μοσχολιού Βίκυ - Τι έχει και κλαίει το παιδί [1964]
TTITLE2=Ζαμπέτας Γιώργος - Αν μάς σπάσουν το μπουζούκι [1961]
TTITLE3=Λίντα Μαίρη-Χιώτης Μανώλης - Κάποιο τραίνο θα περάσει [1960]
TTITLE4=Καζαντζίδης Στέλιος-Μαρινέλλα - Άνθρωπε δυστυχισμένε [1961]
TTITLE5=Πάνου Πόλυ - Το παρελθόν μου το βαρύ [1961]
TTITLE6=Μπιθικώτσης Γρηγόρης - Βρέχει ο ουρανός και βρέχομαι [1960]
TTITLE7=Αγγελόπουλος Μανώλης - Δεν έχω μπαλκόνι, να 'ρθεί χελιδόνι [1966]
TTITLE8=Ρεπάνης Αντώνης - Η διπρόσωπη [1972]
TTITLE9=Διονυσίου Στράτος - Ένας αητός γκρεμίστηκε [1969]
TTITLE10=Διονυσίου Στράτος - Άλλα σού γράφει η μοίρα [1971]
TTITLE11=Μητσιάς Μανώλης - Πολιτεία [1973]
EXTD=
EXTT0=
EXTT1=
EXTT2=
EXTT3=
EXTT4=
EXTT5=
EXTT6=
EXTT7=
EXTT8=
EXTT9=
EXTT10=
EXTT11=
PLAYORDER=
